<?xml version="1.0" standalone="no"?>
<!DOCTYPE svg PUBLIC "-//W3C//DTD SVG 20010904//EN"
 "http://www.w3.org/TR/2001/REC-SVG-20010904/DTD/svg10.dtd">
<svg version="1.0" xmlns="http://www.w3.org/2000/svg"
 width="730.000000pt" height="730.000000pt" viewBox="0 0 730.000000 730.000000"
 preserveAspectRatio="xMidYMid meet">
<metadata>
Created by potrace 1.14, written by Peter Selinger 2001-2017
</metadata>
<g transform="translate(0.000000,730.000000) scale(0.100000,-0.100000)"
fill="#000000" stroke="none">
<path d="M5830 5683 c0 -4 -35 -9 -78 -9 -42 -1 -97 -5 -122 -8 -87 -12 -99
-14 -127 -20 -15 -4 -39 -8 -52 -11 -24 -4 -111 -31 -141 -42 -8 -4 -17 -7
-20 -7 -26 -6 -120 -52 -120 -58 0 -5 -4 -7 -9 -4 -4 3 -19 -3 -31 -14 -13
-11 -29 -20 -37 -20 -7 0 -13 -4 -13 -10 0 -5 -6 -10 -14 -10 -8 0 -16 -7 -20
-15 -3 -8 -12 -15 -20 -15 -7 0 -17 -7 -20 -16 -4 -9 -9 -14 -12 -12 -6 7
-144 -130 -144 -143 0 -6 -4 -7 -10 -4 -5 3 -10 2 -10 -3 0 -5 -10 -20 -21
-33 -33 -37 -132 -187 -165 -249 -16 -30 -33 -58 -39 -62 -5 -4 -6 -8 -1 -8 4
0 2 -10 -6 -22 -13 -21 -67 -149 -73 -173 -13 -58 -29 -105 -34 -105 -4 0 -6
-13 -5 -30 1 -16 -1 -30 -5 -30 -4 0 -8 -10 -8 -22 -1 -13 -4 -43 -8 -68 -3
-25 -7 -73 -9 -108 -1 -34 -5 -64 -7 -67 -3 -2 -40 13 -83 34 -43 22 -88 42
-99 46 -12 4 -24 8 -27 10 -3 1 -13 5 -22 9 -9 4 -22 9 -30 10 -27 6 -74 18
-88 23 -18 7 -33 11 -80 19 -35 6 -50 8 -150 21 -88 11 -420 6 -420 -7 0 -3
-17 -5 -37 -5 -21 1 -44 -3 -50 -8 -7 -5 -13 -7 -13 -4 0 3 -15 1 -32 -4 -33
-10 -44 -13 -103 -25 -16 -3 -41 -13 -54 -21 -13 -8 -20 -10 -17 -4 4 6 -6 4
-21 -4 -27 -14 -103 -47 -113 -49 -3 -1 -27 -14 -53 -29 -27 -16 -51 -26 -55
-22 -3 3 -7 25 -7 48 -1 24 -3 47 -6 52 -2 6 -4 27 -4 48 1 20 -2 37 -5 37 -3
0 -6 10 -7 23 -1 12 -4 33 -8 47 -3 14 -8 34 -10 45 -6 31 -11 48 -23 78 -7
16 -12 36 -12 46 0 9 -4 21 -9 26 -4 6 -17 33 -27 60 -19 53 -85 183 -114 225
-9 14 -20 33 -23 43 -4 9 -11 17 -17 17 -5 0 -10 6 -10 14 0 8 -6 21 -12 28
-7 7 -26 31 -43 53 -34 45 -39 52 -117 131 -63 65 -128 125 -128 117 0 -2 -7
3 -16 11 -8 9 -36 28 -62 43 -26 15 -48 31 -50 35 -2 4 -8 8 -13 8 -4 0 -32
11 -61 24 -59 27 -215 76 -241 76 -9 0 -17 3 -17 8 0 7 -23 9 -127 15 -24 1
-43 5 -43 8 0 14 -397 1 -475 -16 -142 -30 -215 -49 -215 -56 0 -4 -7 -6 -17
-5 -9 2 -34 -6 -55 -16 -48 -23 -93 -40 -94 -36 0 2 -9 -4 -19 -12 -19 -16
-49 -34 -80 -49 -11 -5 -30 -17 -42 -27 -11 -11 -31 -26 -44 -34 -28 -19 -185
-176 -219 -219 -14 -18 -31 -38 -37 -46 -7 -7 -13 -18 -13 -24 0 -6 -4 -11
-10 -11 -5 0 -10 -7 -10 -15 0 -8 -4 -15 -10 -15 -5 0 -10 -7 -10 -15 0 -8 -3
-15 -8 -15 -4 0 -13 -15 -21 -32 -8 -18 -17 -35 -21 -38 -10 -8 -55 -104 -52
-112 1 -5 -3 -8 -9 -8 -5 0 -8 -4 -4 -9 3 -5 0 -13 -6 -16 -5 -4 -8 -13 -5
-21 3 -8 1 -14 -4 -14 -5 0 -13 -12 -16 -27 -4 -16 -11 -34 -17 -40 -5 -7 -6
-13 -3 -13 4 0 1 -10 -6 -22 -6 -13 -13 -34 -14 -48 -1 -14 -2 -25 -3 -25 -4
0 -11 -39 -14 -72 -1 -18 -4 -33 -7 -33 -10 0 -20 -249 -11 -265 5 -9 12 -71
13 -122 0 -13 3 -23 7 -23 4 0 7 -9 8 -20 2 -21 38 -147 53 -185 4 -11 17 -41
29 -67 12 -26 21 -52 21 -58 0 -5 5 -10 12 -10 6 0 8 -3 5 -7 -4 -3 -2 -12 4
-20 6 -7 8 -13 4 -13 -4 0 -3 -6 3 -12 5 -7 19 -30 31 -50 12 -21 31 -55 42
-75 12 -21 26 -41 33 -45 6 -4 7 -8 1 -8 -6 0 -6 -3 1 -8 5 -4 20 -24 33 -44
12 -21 27 -38 32 -38 5 0 9 -5 9 -11 0 -21 135 -168 214 -234 27 -22 57 -48
67 -57 11 -10 19 -16 19 -13 0 5 66 -37 90 -57 8 -7 15 -12 15 -11 1 7 45 -11
45 -18 0 -5 3 -8 8 -7 13 3 62 -14 62 -21 0 -4 6 -8 13 -8 6 0 37 -8 68 -17
64 -19 93 -26 174 -41 91 -16 405 -28 405 -15 0 3 15 6 33 6 79 3 139 15 149
29 5 6 8 6 8 -1 0 -8 11 -8 39 2 22 7 50 15 63 18 13 2 40 11 60 19 20 8 39
13 42 9 3 -3 6 0 6 7 0 7 4 10 8 7 4 -3 44 13 87 35 44 22 84 38 90 35 6 -2
10 -19 10 -37 -1 -19 2 -42 7 -51 5 -10 4 -19 -2 -23 -6 -4 -7 -12 -3 -18 4
-7 8 -23 9 -38 4 -56 23 -138 60 -264 3 -11 6 -26 6 -32 1 -7 4 -13 7 -13 4 0
13 -20 20 -45 7 -25 18 -45 24 -45 6 0 8 -3 4 -6 -7 -8 41 -106 57 -116 6 -4
7 -8 3 -8 -17 0 157 -270 174 -270 5 0 9 -6 9 -13 0 -22 205 -225 268 -264 15
-10 29 -21 32 -24 17 -23 202 -115 223 -111 4 1 7 -3 7 -10 0 -6 3 -8 6 -5 4
3 16 1 28 -5 11 -7 30 -13 41 -15 11 -2 27 -6 35 -10 8 -3 18 -7 23 -8 4 -2 8
-3 10 -5 1 -1 13 -3 27 -5 27 -3 65 -12 65 -15 0 -1 14 -3 30 -6 17 -2 50 -6
75 -9 25 -3 88 -7 140 -10 52 -2 97 -4 100 -5 3 -1 10 -1 15 0 10 3 44 5 130
10 28 2 54 6 60 9 5 2 25 6 45 8 19 2 60 11 90 20 30 9 61 15 68 14 6 -1 12 4
12 11 0 10 2 10 9 0 7 -11 9 -10 15 3 3 9 10 14 15 11 5 -4 22 -1 38 6 15 6
30 12 33 13 58 17 280 150 280 167 0 4 5 8 11 8 10 0 165 152 204 201 75 93
130 172 141 202 3 9 9 17 13 17 4 0 13 16 20 35 7 19 16 35 20 35 4 0 14 18
21 40 7 22 17 40 22 40 4 0 8 6 8 13 0 7 12 37 26 67 25 52 35 80 36 108 1 6
5 12 9 12 6 0 11 18 25 88 1 8 6 21 10 30 3 9 8 31 11 47 4 36 11 70 13 70 4
0 10 74 13 142 1 39 6 75 9 79 4 4 19 -1 33 -10 14 -9 25 -13 25 -9 0 5 4 3 8
-3 8 -12 123 -60 135 -56 4 1 7 -2 7 -8 0 -6 3 -9 8 -9 4 1 9 0 12 -1 3 -1 14
-3 25 -5 11 -2 38 -9 60 -15 72 -19 80 -21 110 -25 17 -2 48 -7 70 -10 22 -3
58 -7 81 -8 22 -2 45 -7 52 -11 7 -4 12 -3 12 2 0 5 12 7 28 5 33 -5 28 -5
137 2 50 3 109 7 132 8 24 1 43 4 43 7 0 6 44 12 92 14 14 1 24 4 21 9 -2 4 3
7 11 7 22 0 26 1 64 17 17 7 32 11 32 9 0 -3 12 1 27 9 15 8 30 12 35 9 4 -3
8 -1 8 5 0 10 38 27 53 23 4 -1 7 3 7 9 0 5 4 8 9 4 6 -3 14 2 19 11 5 9 12
14 15 12 8 -4 127 75 166 111 17 16 31 27 31 25 0 -2 26 24 58 58 87 94 96
104 107 121 6 8 31 45 58 82 26 36 47 68 47 71 0 3 7 12 15 21 8 8 13 19 10
24 -4 5 -2 9 3 9 4 0 30 44 56 98 26 53 54 109 62 125 9 15 13 31 9 36 -3 5
-1 12 5 16 5 3 15 26 21 51 6 24 16 44 21 44 5 0 7 3 4 8 -2 4 2 32 10 62 9
30 17 69 20 85 2 17 8 53 12 80 9 53 7 250 -2 300 -3 17 -9 46 -14 65 -5 19
-9 37 -10 40 0 3 -3 12 -5 20 -3 8 -10 35 -17 59 -6 25 -17 56 -23 70 -6 14
-11 28 -12 31 -1 3 -6 16 -12 30 -6 14 -19 44 -28 68 -9 23 -21 42 -26 42 -5
0 -9 9 -9 19 0 11 -3 21 -7 23 -5 2 -19 23 -33 48 -13 25 -28 50 -32 55 -4 6
-19 24 -33 41 -14 18 -25 34 -25 37 0 8 -61 76 -130 146 -67 66 -201 171 -219
171 -6 0 -11 3 -11 8 0 4 -17 15 -37 24 -21 9 -64 28 -96 42 -31 14 -60 26
-65 27 -4 1 -17 5 -30 10 -13 5 -32 9 -43 9 -10 0 -19 4 -19 8 0 5 -6 9 -12 9
-28 2 -88 12 -95 16 -4 3 -30 8 -58 11 -27 4 -63 9 -80 12 -16 2 -67 6 -112 8
-45 2 -86 7 -92 11 -6 3 -11 3 -11 -2z"/>
</g>
</svg>
